<svg width="133" height="156" viewBox="0 0 133 156" fill="none" xmlns="http://www.w3.org/2000/svg">
<rect width="133" height="156" rx="20" fill="#BF9969"/>
<path d="M38.2031 116.84H51.1631V120.03C51.1631 122.046 49.529 123.68 47.5131 123.68H41.8531C39.8373 123.68 38.2031 122.046 38.2031 120.03V116.84Z" fill="#302F2F"/>
<path d="M83.1328 116.84H96.0928V120.03C96.0928 122.046 94.4587 123.68 92.4428 123.68H86.7828C84.767 123.68 83.1328 122.046 83.1328 120.03V116.84Z" fill="#302F2F"/>
<path d="M31 113.817V34.1955C31 31.3282 33.3282 29.0058 36.1955 29.013L97.8304 29.1671C100.688 29.1742 103 31.4924 103 34.3496V113.817C103 116.679 100.68 118.999 97.8174 118.999H36.1826C33.3203 118.999 31 116.679 31 113.817Z" fill="#AF8855"/>
<path d="M40 93.5797V108.96C40 110.975 41.6342 112.61 43.65 112.61H90.44C92.4558 112.61 94.09 110.975 94.09 108.96V93.5797C94.09 91.5638 92.4558 89.9297 90.44 89.9297H43.65C41.6342 89.9297 40 91.5638 40 93.5797Z" fill="#D0B086"/>
<path d="M40 66.6715V82.0513C40 84.0672 41.6342 85.7013 43.65 85.7013H90.44C92.4558 85.7013 94.09 84.0672 94.09 82.0513V66.6715C94.09 64.6556 92.4558 63.0215 90.44 63.0215H43.65C41.6342 63.0215 40 64.6556 40 66.6715Z" fill="#D0B086"/>
<path d="M40 39.6715V55.0513C40 57.0672 41.6342 58.7013 43.65 58.7013H90.44C92.4558 58.7013 94.09 57.0672 94.09 55.0513V39.6715C94.09 37.6556 92.4558 36.0215 90.44 36.0215H43.65C41.6342 36.0215 40 37.6556 40 39.6715Z" fill="#D0B086"/>
<path d="M79.8709 42.5H54.1309C53.4848 42.5 52.9609 41.9762 52.9609 41.33C52.9609 40.6838 53.4848 40.16 54.1309 40.16H79.8709C80.5171 40.16 81.0409 40.6838 81.0409 41.33C81.0409 41.9762 80.5171 42.5 79.8709 42.5Z" fill="#AF8855"/>
<path d="M79.8709 69.1367H54.1309C53.4848 69.1367 52.9609 68.6129 52.9609 67.9667C52.9609 67.3206 53.4848 66.7967 54.1309 66.7967H79.8709C80.5171 66.7967 81.0409 67.3206 81.0409 67.9667C81.0409 68.6129 80.5171 69.1367 79.8709 69.1367Z" fill="#AF8855"/>
<path d="M79.8709 96.1387H54.1309C53.4848 96.1387 52.9609 95.6148 52.9609 94.9687C52.9609 94.3225 53.4848 93.7987 54.1309 93.7987H79.8709C80.5171 93.7987 81.0409 94.3225 81.0409 94.9687C81.0409 95.6148 80.5171 96.1387 79.8709 96.1387Z" fill="#AF8855"/>
<path d="M36.5779 133.565C36.3439 133.114 36.0189 132.776 35.6029 132.551C35.1869 132.317 34.7059 132.2 34.1599 132.2C33.5619 132.2 33.0289 132.334 32.5609 132.603C32.0929 132.872 31.7245 133.253 31.4559 133.747C31.1959 134.241 31.0659 134.813 31.0659 135.463C31.0659 136.113 31.1959 136.689 31.4559 137.192C31.7245 137.686 32.0929 138.067 32.5609 138.336C33.0289 138.605 33.5619 138.739 34.1599 138.739C34.9659 138.739 35.6202 138.514 36.1229 138.063C36.6255 137.612 36.9332 137.001 37.0459 136.23H33.6529V135.047H38.6319V136.204C38.5365 136.906 38.2852 137.552 37.8779 138.141C37.4792 138.73 36.9549 139.203 36.3049 139.558C35.6635 139.905 34.9485 140.078 34.1599 140.078C33.3105 140.078 32.5349 139.883 31.8329 139.493C31.1309 139.094 30.5719 138.544 30.1559 137.842C29.7485 137.14 29.5449 136.347 29.5449 135.463C29.5449 134.579 29.7485 133.786 30.1559 133.084C30.5719 132.382 31.1309 131.836 31.8329 131.446C32.5435 131.047 33.3192 130.848 34.1599 130.848C35.1219 130.848 35.9755 131.086 36.7209 131.563C37.4749 132.031 38.0209 132.698 38.3589 133.565H36.5779ZM39.7296 136.386C39.7296 135.667 39.8769 135.03 40.1716 134.475C40.4749 133.92 40.8822 133.491 41.3936 133.188C41.9136 132.876 42.4856 132.72 43.1096 132.72C43.6729 132.72 44.1626 132.833 44.5786 133.058C45.0032 133.275 45.3412 133.548 45.5926 133.877V132.837H47.0876V140H45.5926V138.934C45.3412 139.272 44.9989 139.554 44.5656 139.779C44.1322 140.004 43.6382 140.117 43.0836 140.117C42.4682 140.117 41.9049 139.961 41.3936 139.649C40.8822 139.328 40.4749 138.886 40.1716 138.323C39.8769 137.751 39.7296 137.105 39.7296 136.386ZM45.5926 136.412C45.5926 135.918 45.4886 135.489 45.2806 135.125C45.0812 134.761 44.8169 134.484 44.4876 134.293C44.1582 134.102 43.8029 134.007 43.4216 134.007C43.0402 134.007 42.6849 134.102 42.3556 134.293C42.0262 134.475 41.7576 134.748 41.5496 135.112C41.3502 135.467 41.2506 135.892 41.2506 136.386C41.2506 136.88 41.3502 137.313 41.5496 137.686C41.7576 138.059 42.0262 138.345 42.3556 138.544C42.6936 138.735 43.0489 138.83 43.4216 138.83C43.8029 138.83 44.1582 138.735 44.4876 138.544C44.8169 138.353 45.0812 138.076 45.2806 137.712C45.4886 137.339 45.5926 136.906 45.5926 136.412ZM51.9331 138.674L53.9611 132.837H55.5341L52.8041 140H51.0361L48.3191 132.837H49.9051L51.9331 138.674ZM63.3493 136.243C63.3493 136.512 63.332 136.754 63.2973 136.971H57.8243C57.8677 137.543 58.08 138.002 58.4613 138.349C58.8427 138.696 59.3107 138.869 59.8653 138.869C60.6627 138.869 61.226 138.535 61.5553 137.868H63.1543C62.9377 138.527 62.5433 139.068 61.9713 139.493C61.408 139.909 60.706 140.117 59.8653 140.117C59.1807 140.117 58.5653 139.965 58.0193 139.662C57.482 139.35 57.0573 138.917 56.7453 138.362C56.442 137.799 56.2903 137.149 56.2903 136.412C56.2903 135.675 56.4377 135.03 56.7323 134.475C57.0357 133.912 57.456 133.478 57.9933 133.175C58.5393 132.872 59.1633 132.72 59.8653 132.72C60.5413 132.72 61.1437 132.867 61.6723 133.162C62.201 133.457 62.6127 133.873 62.9073 134.41C63.202 134.939 63.3493 135.55 63.3493 136.243ZM61.8023 135.775C61.7937 135.229 61.5987 134.791 61.2173 134.462C60.836 134.133 60.3637 133.968 59.8003 133.968C59.289 133.968 58.8513 134.133 58.4873 134.462C58.1233 134.783 57.9067 135.22 57.8373 135.775H61.8023ZM66.6668 134.046V138.011C66.6668 138.28 66.7274 138.475 66.8488 138.596C66.9788 138.709 67.1954 138.765 67.4988 138.765H68.4088V140H67.2388C66.5714 140 66.0601 139.844 65.7048 139.532C65.3494 139.22 65.1718 138.713 65.1718 138.011V134.046H64.3268V132.837H65.1718V131.056H66.6668V132.837H68.4088V134.046H66.6668ZM76.4697 136.243C76.4697 136.512 76.4524 136.754 76.4177 136.971H70.9447C70.988 137.543 71.2004 138.002 71.5817 138.349C71.963 138.696 72.431 138.869 72.9857 138.869C73.783 138.869 74.3464 138.535 74.6757 137.868H76.2747C76.058 138.527 75.6637 139.068 75.0917 139.493C74.5284 139.909 73.8264 140.117 72.9857 140.117C72.301 140.117 71.6857 139.965 71.1397 139.662C70.6024 139.35 70.1777 138.917 69.8657 138.362C69.5624 137.799 69.4107 137.149 69.4107 136.412C69.4107 135.675 69.558 135.03 69.8527 134.475C70.156 133.912 70.5764 133.478 71.1137 133.175C71.6597 132.872 72.2837 132.72 72.9857 132.72C73.6617 132.72 74.264 132.867 74.7927 133.162C75.3214 133.457 75.733 133.873 76.0277 134.41C76.3224 134.939 76.4697 135.55 76.4697 136.243ZM74.9227 135.775C74.914 135.229 74.719 134.791 74.3377 134.462C73.9564 134.133 73.484 133.968 72.9207 133.968C72.4094 133.968 71.9717 134.133 71.6077 134.462C71.2437 134.783 71.027 135.22 70.9577 135.775H74.9227ZM78.8121 131.888C78.5435 131.888 78.3181 131.797 78.1361 131.615C77.9541 131.433 77.8631 131.208 77.8631 130.939C77.8631 130.67 77.9541 130.445 78.1361 130.263C78.3181 130.081 78.5435 129.99 78.8121 129.99C79.0721 129.99 79.2931 130.081 79.4751 130.263C79.6571 130.445 79.7481 130.67 79.7481 130.939C79.7481 131.208 79.6571 131.433 79.4751 131.615C79.2931 131.797 79.0721 131.888 78.8121 131.888ZM79.5401 132.837V140H78.0581V132.837H79.5401ZM83.0979 133.877C83.3145 133.513 83.6005 133.231 83.9559 133.032C84.3199 132.824 84.7489 132.72 85.2429 132.72V134.254H84.8659C84.2852 134.254 83.8432 134.401 83.5399 134.696C83.2452 134.991 83.0979 135.502 83.0979 136.23V140H81.6159V132.837H83.0979V133.877ZM89.8421 140.117C89.1661 140.117 88.5551 139.965 88.0091 139.662C87.4631 139.35 87.0341 138.917 86.7221 138.362C86.4101 137.799 86.2541 137.149 86.2541 136.412C86.2541 135.684 86.4144 135.038 86.7351 134.475C87.0558 133.912 87.4935 133.478 88.0481 133.175C88.6028 132.872 89.2225 132.72 89.9071 132.72C90.5918 132.72 91.2115 132.872 91.7661 133.175C92.3208 133.478 92.7585 133.912 93.0791 134.475C93.3998 135.038 93.5601 135.684 93.5601 136.412C93.5601 137.14 93.3955 137.786 93.0661 138.349C92.7368 138.912 92.2861 139.35 91.7141 139.662C91.1508 139.965 90.5268 140.117 89.8421 140.117ZM89.8421 138.83C90.2235 138.83 90.5788 138.739 90.9081 138.557C91.2461 138.375 91.5191 138.102 91.7271 137.738C91.9351 137.374 92.0391 136.932 92.0391 136.412C92.0391 135.892 91.9395 135.454 91.7401 135.099C91.5408 134.735 91.2765 134.462 90.9471 134.28C90.6178 134.098 90.2625 134.007 89.8811 134.007C89.4998 134.007 89.1444 134.098 88.8151 134.28C88.4945 134.462 88.2388 134.735 88.0481 135.099C87.8575 135.454 87.7621 135.892 87.7621 136.412C87.7621 137.183 87.9571 137.781 88.3471 138.206C88.7458 138.622 89.2441 138.83 89.8421 138.83ZM100.092 138.713H104.291V140H98.3371V138.843L102.523 132.252H98.3371V130.965H104.291V132.122L100.092 138.713Z" fill="white"/>
</svg>
