<svg width="133" height="156" viewBox="0 0 133 156" fill="none" xmlns="http://www.w3.org/2000/svg">
<rect width="133" height="156" rx="20" fill="#D06A52"/>
<path d="M17.0898 112.648V105.236C17.0898 103.872 18.196 102.766 19.5604 102.766H26.9722C28.3367 102.766 29.4428 103.872 29.4428 105.236V112.648C29.4428 114.012 28.3367 115.119 26.9722 115.119H19.5604C18.196 115.119 17.0898 114.012 17.0898 112.648Z" fill="#302F2F"/>
<path d="M103.559 112.648V105.236C103.559 103.872 104.665 102.766 106.029 102.766H113.441C114.805 102.766 115.912 103.872 115.912 105.236V112.648C115.912 114.012 114.805 115.119 113.441 115.119H106.029C104.665 115.119 103.559 114.012 103.559 112.648Z" fill="#302F2F"/>
<path d="M110.353 108.941H22.6471C17.8714 108.941 14 105.07 14 100.294V49.6471C14 44.8714 17.8714 41 22.6471 41H110.353C115.129 41 119 44.8714 119 49.6471V100.294C119 105.07 115.129 108.941 110.353 108.941Z" fill="#802C1A"/>
<path d="M110.353 102.764H53.5292C52.1647 102.764 51.0586 101.658 51.0586 100.293V80.5287C51.0586 79.1643 52.1647 78.0581 53.5292 78.0581H110.353C111.717 78.0581 112.823 79.1643 112.823 80.5287V100.293C112.823 101.658 111.717 102.764 110.353 102.764Z" fill="#D06A52"/>
<path d="M110.353 71.8817H53.5292C52.1647 71.8817 51.0586 70.7755 51.0586 69.4111V49.6464C51.0586 48.2819 52.1647 47.1758 53.5292 47.1758H110.353C111.717 47.1758 112.823 48.2819 112.823 49.6464V69.4111C112.823 70.7755 111.717 71.8817 110.353 71.8817Z" fill="#D06A52"/>
<path d="M22.6464 102.764H42.4111C43.7755 102.764 44.8817 101.658 44.8817 100.293V49.6464C44.8817 48.2819 43.7755 47.1758 42.4111 47.1758H22.6464C21.2819 47.1758 20.1758 48.2819 20.1758 49.6464V100.293C20.1758 101.658 21.2819 102.764 22.6464 102.764Z" fill="#D06A52"/>
<path d="M98.9249 53.3535H64.9543C64.1015 53.3535 63.4102 54.0448 63.4102 54.8976C63.4102 55.7504 64.1015 56.4418 64.9543 56.4418H98.9249C99.7777 56.4418 100.469 55.7504 100.469 54.8976C100.469 54.0448 99.7777 53.3535 98.9249 53.3535Z" fill="#802C1A"/>
<path d="M98.9249 84.2344H64.9543C64.1015 84.2344 63.4102 84.9257 63.4102 85.7785C63.4102 86.6313 64.1015 87.3226 64.9543 87.3226H98.9249C99.7777 87.3226 100.469 86.6313 100.469 85.7785C100.469 84.9257 99.7777 84.2344 98.9249 84.2344Z" fill="#802C1A"/>
<path d="M29.4414 91.9561V57.9855C29.4414 57.1327 28.7501 56.4414 27.8973 56.4414C27.0445 56.4414 26.3532 57.1327 26.3532 57.9855V91.9561C26.3532 92.8089 27.0445 93.5002 27.8973 93.5002C28.7501 93.5002 29.4414 92.8089 29.4414 91.9561Z" fill="#802C1A"/>
<path d="M36.9114 126.565C36.6774 126.114 36.3524 125.776 35.9364 125.551C35.5204 125.317 35.0394 125.2 34.4934 125.2C33.8954 125.2 33.3624 125.334 32.8944 125.603C32.4264 125.872 32.058 126.253 31.7894 126.747C31.5294 127.241 31.3994 127.813 31.3994 128.463C31.3994 129.113 31.5294 129.689 31.7894 130.192C32.058 130.686 32.4264 131.067 32.8944 131.336C33.3624 131.605 33.8954 131.739 34.4934 131.739C35.2994 131.739 35.9537 131.514 36.4564 131.063C36.959 130.612 37.2667 130.001 37.3794 129.23H33.9864V128.047H38.9654V129.204C38.87 129.906 38.6187 130.552 38.2114 131.141C37.8127 131.73 37.2884 132.203 36.6384 132.558C35.997 132.905 35.282 133.078 34.4934 133.078C33.644 133.078 32.8684 132.883 32.1664 132.493C31.4644 132.094 30.9054 131.544 30.4894 130.842C30.082 130.14 29.8784 129.347 29.8784 128.463C29.8784 127.579 30.082 126.786 30.4894 126.084C30.9054 125.382 31.4644 124.836 32.1664 124.446C32.877 124.047 33.6527 123.848 34.4934 123.848C35.4554 123.848 36.309 124.086 37.0544 124.563C37.8084 125.031 38.3544 125.698 38.6924 126.565H36.9114ZM40.063 129.386C40.063 128.667 40.2104 128.03 40.505 127.475C40.8084 126.92 41.2157 126.491 41.727 126.188C42.247 125.876 42.819 125.72 43.443 125.72C44.0064 125.72 44.496 125.833 44.912 126.058C45.3367 126.275 45.6747 126.548 45.926 126.877V125.837H47.421V133H45.926V131.934C45.6747 132.272 45.3324 132.554 44.899 132.779C44.4657 133.004 43.9717 133.117 43.417 133.117C42.8017 133.117 42.2384 132.961 41.727 132.649C41.2157 132.328 40.8084 131.886 40.505 131.323C40.2104 130.751 40.063 130.105 40.063 129.386ZM45.926 129.412C45.926 128.918 45.822 128.489 45.614 128.125C45.4147 127.761 45.1504 127.484 44.821 127.293C44.4917 127.102 44.1364 127.007 43.755 127.007C43.3737 127.007 43.0184 127.102 42.689 127.293C42.3597 127.475 42.091 127.748 41.883 128.112C41.6837 128.467 41.584 128.892 41.584 129.386C41.584 129.88 41.6837 130.313 41.883 130.686C42.091 131.059 42.3597 131.345 42.689 131.544C43.027 131.735 43.3824 131.83 43.755 131.83C44.1364 131.83 44.4917 131.735 44.821 131.544C45.1504 131.353 45.4147 131.076 45.614 130.712C45.822 130.339 45.926 129.906 45.926 129.412ZM52.2666 131.674L54.2946 125.837H55.8676L53.1376 133H51.3696L48.6526 125.837H50.2386L52.2666 131.674ZM63.6828 129.243C63.6828 129.512 63.6655 129.754 63.6308 129.971H58.1578C58.2012 130.543 58.4135 131.002 58.7948 131.349C59.1762 131.696 59.6442 131.869 60.1988 131.869C60.9962 131.869 61.5595 131.535 61.8888 130.868H63.4878C63.2712 131.527 62.8768 132.068 62.3048 132.493C61.7415 132.909 61.0395 133.117 60.1988 133.117C59.5142 133.117 58.8988 132.965 58.3528 132.662C57.8155 132.35 57.3908 131.917 57.0788 131.362C56.7755 130.799 56.6238 130.149 56.6238 129.412C56.6238 128.675 56.7712 128.03 57.0658 127.475C57.3692 126.912 57.7895 126.478 58.3268 126.175C58.8728 125.872 59.4968 125.72 60.1988 125.72C60.8748 125.72 61.4772 125.867 62.0058 126.162C62.5345 126.457 62.9462 126.873 63.2408 127.41C63.5355 127.939 63.6828 128.55 63.6828 129.243ZM62.1358 128.775C62.1272 128.229 61.9322 127.791 61.5508 127.462C61.1695 127.133 60.6972 126.968 60.1338 126.968C59.6225 126.968 59.1848 127.133 58.8208 127.462C58.4568 127.783 58.2402 128.22 58.1708 128.775H62.1358ZM67.0003 127.046V131.011C67.0003 131.28 67.0609 131.475 67.1823 131.596C67.3123 131.709 67.5289 131.765 67.8323 131.765H68.7423V133H67.5723C66.9049 133 66.3936 132.844 66.0383 132.532C65.6829 132.22 65.5053 131.713 65.5053 131.011V127.046H64.6603V125.837H65.5053V124.056H67.0003V125.837H68.7423V127.046H67.0003ZM76.8032 129.243C76.8032 129.512 76.7859 129.754 76.7512 129.971H71.2782C71.3215 130.543 71.5339 131.002 71.9152 131.349C72.2965 131.696 72.7645 131.869 73.3192 131.869C74.1165 131.869 74.6799 131.535 75.0092 130.868H76.6082C76.3915 131.527 75.9972 132.068 75.4252 132.493C74.8619 132.909 74.1599 133.117 73.3192 133.117C72.6345 133.117 72.0192 132.965 71.4732 132.662C70.9359 132.35 70.5112 131.917 70.1992 131.362C69.8959 130.799 69.7442 130.149 69.7442 129.412C69.7442 128.675 69.8915 128.03 70.1862 127.475C70.4895 126.912 70.9099 126.478 71.4472 126.175C71.9932 125.872 72.6172 125.72 73.3192 125.72C73.9952 125.72 74.5975 125.867 75.1262 126.162C75.6549 126.457 76.0665 126.873 76.3612 127.41C76.6559 127.939 76.8032 128.55 76.8032 129.243ZM75.2562 128.775C75.2475 128.229 75.0525 127.791 74.6712 127.462C74.2899 127.133 73.8175 126.968 73.2542 126.968C72.7429 126.968 72.3052 127.133 71.9412 127.462C71.5772 127.783 71.3605 128.22 71.2912 128.775H75.2562ZM79.1456 124.888C78.877 124.888 78.6516 124.797 78.4696 124.615C78.2876 124.433 78.1966 124.208 78.1966 123.939C78.1966 123.67 78.2876 123.445 78.4696 123.263C78.6516 123.081 78.877 122.99 79.1456 122.99C79.4056 122.99 79.6266 123.081 79.8086 123.263C79.9906 123.445 80.0816 123.67 80.0816 123.939C80.0816 124.208 79.9906 124.433 79.8086 124.615C79.6266 124.797 79.4056 124.888 79.1456 124.888ZM79.8736 125.837V133H78.3916V125.837H79.8736ZM83.4314 126.877C83.648 126.513 83.934 126.231 84.2894 126.032C84.6534 125.824 85.0824 125.72 85.5764 125.72V127.254H85.1994C84.6187 127.254 84.1767 127.401 83.8734 127.696C83.5787 127.991 83.4314 128.502 83.4314 129.23V133H81.9494V125.837H83.4314V126.877ZM90.1756 133.117C89.4996 133.117 88.8886 132.965 88.3426 132.662C87.7966 132.35 87.3676 131.917 87.0556 131.362C86.7436 130.799 86.5876 130.149 86.5876 129.412C86.5876 128.684 86.7479 128.038 87.0686 127.475C87.3893 126.912 87.8269 126.478 88.3816 126.175C88.9363 125.872 89.5559 125.72 90.2406 125.72C90.9253 125.72 91.5449 125.872 92.0996 126.175C92.6543 126.478 93.0919 126.912 93.4126 127.475C93.7333 128.038 93.8936 128.684 93.8936 129.412C93.8936 130.14 93.7289 130.786 93.3996 131.349C93.0703 131.912 92.6196 132.35 92.0476 132.662C91.4843 132.965 90.8603 133.117 90.1756 133.117ZM90.1756 131.83C90.5569 131.83 90.9123 131.739 91.2416 131.557C91.5796 131.375 91.8526 131.102 92.0606 130.738C92.2686 130.374 92.3726 129.932 92.3726 129.412C92.3726 128.892 92.2729 128.454 92.0736 128.099C91.8743 127.735 91.6099 127.462 91.2806 127.28C90.9513 127.098 90.5959 127.007 90.2146 127.007C89.8333 127.007 89.4779 127.098 89.1486 127.28C88.8279 127.462 88.5723 127.735 88.3816 128.099C88.1909 128.454 88.0956 128.892 88.0956 129.412C88.0956 130.183 88.2906 130.781 88.6806 131.206C89.0793 131.622 89.5776 131.83 90.1756 131.83ZM103.143 128.489L105.951 133H104.287L102.246 129.724L100.335 133H98.6836L101.492 128.489L98.6706 123.965H100.335L102.389 127.267L104.313 123.965H105.964L103.143 128.489Z" fill="white"/>
</svg>
