<svg width="133" height="156" viewBox="0 0 133 156" fill="none" xmlns="http://www.w3.org/2000/svg">
<rect width="133" height="156" rx="20" fill="#36A5BF"/>
<path d="M35.7668 133.565C35.5328 133.114 35.2078 132.776 34.7918 132.551C34.3758 132.317 33.8948 132.2 33.3488 132.2C32.7508 132.2 32.2178 132.334 31.7498 132.603C31.2818 132.872 30.9135 133.253 30.6448 133.747C30.3848 134.241 30.2548 134.813 30.2548 135.463C30.2548 136.113 30.3848 136.689 30.6448 137.192C30.9135 137.686 31.2818 138.067 31.7498 138.336C32.2178 138.605 32.7508 138.739 33.3488 138.739C34.1548 138.739 34.8092 138.514 35.3118 138.063C35.8145 137.612 36.1222 137.001 36.2348 136.23H32.8418V135.047H37.8208V136.204C37.7255 136.906 37.4742 137.552 37.0668 138.141C36.6682 138.73 36.1438 139.203 35.4938 139.558C34.8525 139.905 34.1375 140.078 33.3488 140.078C32.4995 140.078 31.7238 139.883 31.0218 139.493C30.3198 139.094 29.7608 138.544 29.3448 137.842C28.9375 137.14 28.7338 136.347 28.7338 135.463C28.7338 134.579 28.9375 133.786 29.3448 133.084C29.7608 132.382 30.3198 131.836 31.0218 131.446C31.7325 131.047 32.5082 130.848 33.3488 130.848C34.3108 130.848 35.1645 131.086 35.9098 131.563C36.6638 132.031 37.2098 132.698 37.5478 133.565H35.7668ZM38.9185 136.386C38.9185 135.667 39.0659 135.03 39.3605 134.475C39.6639 133.92 40.0712 133.491 40.5825 133.188C41.1025 132.876 41.6745 132.72 42.2985 132.72C42.8619 132.72 43.3515 132.833 43.7675 133.058C44.1922 133.275 44.5302 133.548 44.7815 133.877V132.837H46.2765V140H44.7815V138.934C44.5302 139.272 44.1879 139.554 43.7545 139.779C43.3212 140.004 42.8272 140.117 42.2725 140.117C41.6572 140.117 41.0939 139.961 40.5825 139.649C40.0712 139.328 39.6639 138.886 39.3605 138.323C39.0659 137.751 38.9185 137.105 38.9185 136.386ZM44.7815 136.412C44.7815 135.918 44.6775 135.489 44.4695 135.125C44.2702 134.761 44.0059 134.484 43.6765 134.293C43.3472 134.102 42.9919 134.007 42.6105 134.007C42.2292 134.007 41.8739 134.102 41.5445 134.293C41.2152 134.475 40.9465 134.748 40.7385 135.112C40.5392 135.467 40.4395 135.892 40.4395 136.386C40.4395 136.88 40.5392 137.313 40.7385 137.686C40.9465 138.059 41.2152 138.345 41.5445 138.544C41.8825 138.735 42.2379 138.83 42.6105 138.83C42.9919 138.83 43.3472 138.735 43.6765 138.544C44.0059 138.353 44.2702 138.076 44.4695 137.712C44.6775 137.339 44.7815 136.906 44.7815 136.412ZM51.1221 138.674L53.1501 132.837H54.7231L51.9931 140H50.2251L47.5081 132.837H49.0941L51.1221 138.674ZM62.5383 136.243C62.5383 136.512 62.521 136.754 62.4863 136.971H57.0133C57.0566 137.543 57.269 138.002 57.6503 138.349C58.0316 138.696 58.4996 138.869 59.0543 138.869C59.8516 138.869 60.415 138.535 60.7443 137.868H62.3433C62.1266 138.527 61.7323 139.068 61.1603 139.493C60.597 139.909 59.895 140.117 59.0543 140.117C58.3696 140.117 57.7543 139.965 57.2083 139.662C56.671 139.35 56.2463 138.917 55.9343 138.362C55.631 137.799 55.4793 137.149 55.4793 136.412C55.4793 135.675 55.6266 135.03 55.9213 134.475C56.2246 133.912 56.645 133.478 57.1823 133.175C57.7283 132.872 58.3523 132.72 59.0543 132.72C59.7303 132.72 60.3326 132.867 60.8613 133.162C61.39 133.457 61.8016 133.873 62.0963 134.41C62.391 134.939 62.5383 135.55 62.5383 136.243ZM60.9913 135.775C60.9826 135.229 60.7876 134.791 60.4063 134.462C60.025 134.133 59.5526 133.968 58.9893 133.968C58.478 133.968 58.0403 134.133 57.6763 134.462C57.3123 134.783 57.0956 135.22 57.0263 135.775H60.9913ZM65.8557 134.046V138.011C65.8557 138.28 65.9164 138.475 66.0377 138.596C66.1677 138.709 66.3844 138.765 66.6877 138.765H67.5977V140H66.4277C65.7604 140 65.2491 139.844 64.8937 139.532C64.5384 139.22 64.3607 138.713 64.3607 138.011V134.046H63.5157V132.837H64.3607V131.056H65.8557V132.837H67.5977V134.046H65.8557ZM75.6587 136.243C75.6587 136.512 75.6413 136.754 75.6067 136.971H70.1337C70.177 137.543 70.3893 138.002 70.7707 138.349C71.152 138.696 71.62 138.869 72.1747 138.869C72.972 138.869 73.5353 138.535 73.8647 137.868H75.4637C75.247 138.527 74.8527 139.068 74.2807 139.493C73.7173 139.909 73.0153 140.117 72.1747 140.117C71.49 140.117 70.8747 139.965 70.3287 139.662C69.7913 139.35 69.3667 138.917 69.0547 138.362C68.7513 137.799 68.5997 137.149 68.5997 136.412C68.5997 135.675 68.747 135.03 69.0417 134.475C69.345 133.912 69.7653 133.478 70.3027 133.175C70.8487 132.872 71.4727 132.72 72.1747 132.72C72.8507 132.72 73.453 132.867 73.9817 133.162C74.5103 133.457 74.922 133.873 75.2167 134.41C75.5113 134.939 75.6587 135.55 75.6587 136.243ZM74.1117 135.775C74.103 135.229 73.908 134.791 73.5267 134.462C73.1453 134.133 72.673 133.968 72.1097 133.968C71.5983 133.968 71.1607 134.133 70.7967 134.462C70.4327 134.783 70.216 135.22 70.1467 135.775H74.1117ZM78.0011 131.888C77.7324 131.888 77.5071 131.797 77.3251 131.615C77.1431 131.433 77.0521 131.208 77.0521 130.939C77.0521 130.67 77.1431 130.445 77.3251 130.263C77.5071 130.081 77.7324 129.99 78.0011 129.99C78.2611 129.99 78.4821 130.081 78.6641 130.263C78.8461 130.445 78.9371 130.67 78.9371 130.939C78.9371 131.208 78.8461 131.433 78.6641 131.615C78.4821 131.797 78.2611 131.888 78.0011 131.888ZM78.7291 132.837V140H77.2471V132.837H78.7291ZM82.2868 133.877C82.5035 133.513 82.7895 133.231 83.1448 133.032C83.5088 132.824 83.9378 132.72 84.4318 132.72V134.254H84.0548C83.4742 134.254 83.0322 134.401 82.7288 134.696C82.4342 134.991 82.2868 135.502 82.2868 136.23V140H80.8048V132.837H82.2868V133.877ZM89.0311 140.117C88.3551 140.117 87.7441 139.965 87.1981 139.662C86.6521 139.35 86.2231 138.917 85.9111 138.362C85.5991 137.799 85.4431 137.149 85.4431 136.412C85.4431 135.684 85.6034 135.038 85.9241 134.475C86.2447 133.912 86.6824 133.478 87.2371 133.175C87.7917 132.872 88.4114 132.72 89.0961 132.72C89.7807 132.72 90.4004 132.872 90.9551 133.175C91.5097 133.478 91.9474 133.912 92.2681 134.475C92.5887 135.038 92.7491 135.684 92.7491 136.412C92.7491 137.14 92.5844 137.786 92.2551 138.349C91.9257 138.912 91.4751 139.35 90.9031 139.662C90.3397 139.965 89.7157 140.117 89.0311 140.117ZM89.0311 138.83C89.4124 138.83 89.7677 138.739 90.0971 138.557C90.4351 138.375 90.7081 138.102 90.9161 137.738C91.1241 137.374 91.2281 136.932 91.2281 136.412C91.2281 135.892 91.1284 135.454 90.9291 135.099C90.7297 134.735 90.4654 134.462 90.1361 134.28C89.8067 134.098 89.4514 134.007 89.0701 134.007C88.6887 134.007 88.3334 134.098 88.0041 134.28C87.6834 134.462 87.4277 134.735 87.2371 135.099C87.0464 135.454 86.9511 135.892 86.9511 136.412C86.9511 137.183 87.1461 137.781 87.5361 138.206C87.9347 138.622 88.4331 138.83 89.0311 138.83ZM104.546 130.965L101.556 136.724V140H100.074V136.724L97.0711 130.965H98.7221L100.815 135.398L102.908 130.965H104.546Z" fill="white"/>
<path d="M38.1992 118.84H51.1592V122.08C51.1592 124.068 49.5474 125.68 47.5592 125.68H41.7992C39.811 125.68 38.1992 124.068 38.1992 122.08V118.84Z" fill="#302F2F"/>
<path d="M83.1328 118.84H96.0928V122.08C96.0928 124.068 94.481 125.68 92.4928 125.68H86.7328C84.7446 125.68 83.1328 124.068 83.1328 122.08V118.84Z" fill="#302F2F"/>
<path d="M31 115.888V36.1244C31 33.2963 33.2963 31.0057 36.1243 31.0128L97.9012 31.1673C100.719 31.1743 103 33.4607 103 36.2788V115.888C103 118.711 100.711 121 97.8884 121H36.1116C33.2885 121 31 118.711 31 115.888Z" fill="#238298"/>
<path d="M40 95.5297V111.01C40 112.998 41.6118 114.61 43.6 114.61H90.49C92.4782 114.61 94.09 112.998 94.09 111.01V95.5297C94.09 93.5415 92.4782 91.9297 90.49 91.9297H43.6C41.6118 91.9297 40 93.5415 40 95.5297Z" fill="#5DBDD3"/>
<path d="M40 68.6195V84.0995C40 86.0878 41.6118 87.6995 43.6 87.6995H90.49C92.4782 87.6995 94.09 86.0878 94.09 84.0995V68.6195C94.09 66.6313 92.4782 65.0195 90.49 65.0195H43.6C41.6118 65.0195 40 66.6313 40 68.6195Z" fill="#5DBDD3"/>
<path d="M40 41.6195V57.0995C40 59.0878 41.6118 60.6995 43.6 60.6995H90.49C92.4782 60.6995 94.09 59.0878 94.09 57.0995V41.6195C94.09 39.6313 92.4782 38.0195 90.49 38.0195H43.6C41.6118 38.0195 40 39.6313 40 41.6195Z" fill="#5DBDD3"/>
<path d="M79.8709 44.5H54.1309C53.4848 44.5 52.9609 43.9762 52.9609 43.33C52.9609 42.6838 53.4848 42.16 54.1309 42.16H79.8709C80.5171 42.16 81.0409 42.6838 81.0409 43.33C81.0409 43.9762 80.5171 44.5 79.8709 44.5Z" fill="#238298"/>
<path d="M79.8709 71.1406H54.1309C53.4848 71.1406 52.9609 70.6168 52.9609 69.9706C52.9609 69.3245 53.4848 68.8006 54.1309 68.8006H79.8709C80.5171 68.8006 81.0409 69.3245 81.0409 69.9706C81.0409 70.6168 80.5171 71.1406 79.8709 71.1406Z" fill="#238298"/>
<path d="M79.8709 98.1406H54.1309C53.4848 98.1406 52.9609 97.6168 52.9609 96.9706C52.9609 96.3245 53.4848 95.8006 54.1309 95.8006H79.8709C80.5171 95.8006 81.0409 96.3245 81.0409 96.9706C81.0409 97.6168 80.5171 98.1406 79.8709 98.1406Z" fill="#238298"/>
</svg>
