<svg width="30" height="34" viewBox="0 0 30 34" fill="none" xmlns="http://www.w3.org/2000/svg">
<path d="M6.91625 28.8156C6.91625 29.0883 7.07096 29.3373 7.3154 29.4582L7.73188 29.6641C8.1075 29.8497 8.5475 29.5764 8.5475 29.1574V15.1078C8.5475 14.577 9.10424 14.2303 9.58056 14.4645L13.9669 16.6207C14.4433 16.8549 15 16.5082 15 15.9774V15.3365L0.5 8.16825V9.51617C0.5 9.78827 0.654061 10.0369 0.897713 10.158L6.51854 12.9525C6.76219 13.0736 6.91625 13.3222 6.91625 13.5943V28.8156Z" fill="#36A5BF"/>
<path d="M6.91625 28.8156C6.91625 29.0883 7.07096 29.3373 7.3154 29.4582L7.73188 29.6641C8.1075 29.8497 8.5475 29.5764 8.5475 29.1574V15.1078C8.5475 14.577 9.10424 14.2303 9.58056 14.4645L13.9669 16.6207C14.4433 16.8549 15 16.5082 15 15.9774V15.3365L0.5 8.16825V9.51617C0.5 9.78827 0.654061 10.0369 0.897713 10.158L6.51854 12.9525C6.76219 13.0736 6.91625 13.3222 6.91625 13.5943V28.8156Z" fill="#36A5BF"/>
<path d="M15 15.3365L15 32.2462C15 32.7118 15.4889 33.0155 15.9062 32.8091L16.4133 32.5584C16.6578 32.4376 16.8125 32.1885 16.8125 31.9158V26.5342C16.8125 26.2615 16.9672 26.0124 17.2117 25.8916L26.653 21.2241C27.1294 20.9886 27.6875 21.3352 27.6875 21.8667V25.974C27.6875 26.4395 28.1764 26.7432 28.5938 26.5369L29.1008 26.2862C29.3453 26.1654 29.5 25.9163 29.5 25.6436V8.16825L15 15.3365Z" fill="#36A5BF"/>
<path d="M15 15.3365L15 32.2462C15 32.7118 15.4889 33.0155 15.9062 32.8091L16.4133 32.5584C16.6578 32.4376 16.8125 32.1885 16.8125 31.9158V26.5342C16.8125 26.2615 16.9672 26.0124 17.2117 25.8916L26.653 21.2241C27.1294 20.9886 27.6875 21.3352 27.6875 21.8667V25.974C27.6875 26.4395 28.1764 26.7432 28.5938 26.5369L29.1008 26.2862C29.3453 26.1654 29.5 25.9163 29.5 25.6436V8.16825L15 15.3365Z" fill="#36A5BF"/>
<path d="M2.01412 8.60217C1.8138 8.7014 1.57865 8.7015 1.37825 8.60243L0.5 8.16825L14.6823 1.15705C14.8825 1.05807 15.1175 1.05807 15.3177 1.15705L29.5 8.16825L28.1225 8.84924L15.3208 2.3327C15.1189 2.22995 14.8804 2.22865 14.6774 2.32919L2.01412 8.60217Z" fill="#36A5BF"/>
<path d="M0.5 8.16825V9.51617C0.5 9.78827 0.654061 10.0369 0.897713 10.158L6.51854 12.9525C6.76219 13.0736 6.91625 13.3222 6.91625 13.5943V28.8156C6.91625 29.0883 7.07096 29.3373 7.3154 29.4582L7.73188 29.6641V29.6641C8.1075 29.8497 8.5475 29.5764 8.5475 29.1574V15.1078C8.5475 14.577 9.10424 14.2303 9.58056 14.4645L13.9669 16.6207C14.4433 16.8549 15 16.5082 15 15.9774V15.3365M0.5 8.16825L15 15.3365M0.5 8.16825L1.37825 8.60243C1.57865 8.7015 1.8138 8.7014 2.01412 8.60217L14.6774 2.32919C14.8804 2.22865 15.1189 2.22995 15.3208 2.3327L28.1225 8.84924L29.5 8.16825M0.5 8.16825L14.6823 1.15705C14.8825 1.05807 15.1175 1.05807 15.3177 1.15705L29.5 8.16825M15 15.3365L15 32.2462C15 32.7118 15.4889 33.0155 15.9062 32.8091V32.8091L16.4133 32.5584C16.6578 32.4376 16.8125 32.1885 16.8125 31.9158V26.5342C16.8125 26.2615 16.9672 26.0124 17.2117 25.8916L26.653 21.2241C27.1294 20.9886 27.6875 21.3352 27.6875 21.8667V25.974C27.6875 26.4395 28.1764 26.7432 28.5938 26.5369V26.5369L29.1008 26.2862C29.3453 26.1654 29.5 25.9163 29.5 25.6436V8.16825M15 15.3365L29.5 8.16825M17.2117 16.0352L26.653 11.3678C27.1294 11.1322 27.6875 11.4789 27.6875 12.0104V18.4754C27.6875 18.7481 27.5328 18.9971 27.2883 19.118L17.847 23.7854C17.3706 24.0209 16.8125 23.6743 16.8125 23.1428V16.6778C16.8125 16.4051 16.9672 16.1561 17.2117 16.0352Z" stroke="#36A5BF" stroke-width="0.716826" stroke-linejoin="round"/>
<path d="M27.4879 19.0204L17.3297 24.0422C17.0915 24.16 16.8125 23.9866 16.8125 23.7209V16.4562C16.8125 16.3199 16.8899 16.1954 17.0121 16.1349L27.1703 11.1131C27.4085 10.9954 27.6875 11.1687 27.6875 11.4344V18.6991C27.6875 18.8354 27.6101 18.9599 27.4879 19.0204Z" fill="#1F1F1F"/>
</svg>
