<svg width="32" height="32" viewBox="0 0 32 32" fill="none" xmlns="http://www.w3.org/2000/svg">
<g clip-path="url(#clip0_818_3806)">
<path d="M15.408 16.1029C15.1537 16.1029 15.0018 16.1135 14.7652 15.997C13.2819 15.2694 11.8233 14.5619 10.3894 13.8744C10.341 13.8512 10.2875 13.8405 10.2338 13.8435C10.1802 13.8466 10.1282 13.8631 10.0827 13.8917C10.0372 13.9203 9.99966 13.9599 9.97363 14.0069C9.94761 14.0539 9.93392 14.1068 9.93385 14.1605V28.1177C9.93364 28.2393 9.90683 28.3593 9.8553 28.4695C9.80376 28.5796 9.72876 28.6771 9.63554 28.7552C9.54233 28.8333 9.43316 28.89 9.3157 28.9214C9.19824 28.9528 9.07532 28.9582 8.95558 28.937L8.73662 28.8982C7.97377 28.7616 7.59235 28.306 7.59235 27.5314V12.6631C7.59251 12.6153 7.57943 12.5683 7.55452 12.5272C7.52962 12.4862 7.49385 12.4525 7.45109 12.43L1.71918 9.56932C1.58753 9.50367 1.47681 9.40279 1.39945 9.27801C1.32209 9.15323 1.28115 9.00951 1.28125 8.86299V7.35496C1.28125 7.21134 1.346 7.10892 1.47549 7.04771C6.91192 4.38718 11.1052 2.30231 14.0553 0.79311C14.7169 0.454069 15.3279 0.195079 15.8883 0.0161412C15.979 -0.0111835 16.0761 -0.0036174 16.1602 0.0373314L30.3363 7.01945C30.402 7.05129 30.4573 7.10097 30.4961 7.16281C30.5348 7.22464 30.5553 7.29613 30.5553 7.36909V24.5789C30.5554 24.845 30.4639 25.103 30.2961 25.31C30.1284 25.517 29.8945 25.6604 29.6335 25.7161L29.2556 25.7974C29.1134 25.828 28.9661 25.8264 28.8246 25.7929C28.683 25.7593 28.5508 25.6946 28.4377 25.6035C28.3246 25.5124 28.2334 25.3972 28.1708 25.2664C28.1082 25.1355 28.0759 24.9923 28.0761 24.8474L28.069 20.8071C28.0692 20.7529 28.0556 20.6995 28.0294 20.6521C28.0032 20.6046 27.9653 20.5647 27.9192 20.536C27.8732 20.5073 27.8207 20.4909 27.7665 20.4883C27.7124 20.4857 27.6584 20.497 27.6099 20.521L18.3181 25.1264C18.2395 25.1657 18.1735 25.2266 18.1273 25.302C18.0811 25.3775 18.0567 25.4646 18.0567 25.5537V30.5863C18.0567 31.368 17.6706 31.8236 16.8983 31.9531L16.7994 31.9707C15.9895 32.1073 15.5845 31.7659 15.5845 30.9466V16.2795C15.5845 16.1641 15.5257 16.1053 15.408 16.1029ZM15.9271 14.0016C15.9424 14.0093 15.9594 14.0134 15.9766 14.0134C15.9937 14.0134 16.0107 14.0093 16.026 14.0016L27.8642 8.12134C27.8819 8.11209 27.8968 8.09815 27.9072 8.08102C27.9176 8.0639 27.9231 8.04425 27.9231 8.02422C27.9231 8.00418 27.9176 7.98453 27.9072 7.96741C27.8968 7.95029 27.8819 7.93634 27.8642 7.92709L15.9342 1.84908C15.9188 1.84132 15.9019 1.83728 15.8847 1.83728C15.8675 1.83728 15.8506 1.84132 15.8353 1.84908L3.78521 7.87412C3.76651 7.88301 3.75071 7.89701 3.73965 7.91452C3.72858 7.93202 3.72271 7.9523 3.72271 7.97301C3.72271 7.99371 3.72858 8.01399 3.73965 8.0315C3.75071 8.049 3.76651 8.06301 3.78521 8.07189L15.9271 14.0016ZM28.235 18.0595C28.2932 18.031 28.3423 17.9868 28.3766 17.9319C28.411 17.877 28.4292 17.8135 28.4292 17.7487V10.5653C28.4292 10.5066 28.4142 10.4488 28.3857 10.3975C28.3573 10.3462 28.3162 10.3029 28.2664 10.2719C28.2166 10.2408 28.1597 10.2229 28.1011 10.2198C28.0425 10.2168 27.984 10.2287 27.9313 10.2545L17.8978 15.1917C17.8396 15.2202 17.7905 15.2644 17.7561 15.3193C17.7218 15.3743 17.7036 15.4377 17.7035 15.5025V22.6718C17.7036 22.7305 17.7185 22.7883 17.747 22.8396C17.7755 22.8909 17.8166 22.9342 17.8664 22.9652C17.9162 22.9963 17.9731 23.0142 18.0317 23.0173C18.0903 23.0203 18.1488 23.0084 18.2015 22.9826L28.235 18.0595Z" fill="white"/>
</g>
<defs>
<clipPath id="clip0_818_3806">
<rect width="32" height="32" fill="white"/>
</clipPath>
</defs>
</svg>
